<svg xmlns="http://www.w3.org/2000/svg" width="55" height="69.02" viewBox="0 0 55 69.02"><defs><style>.cls-1{fill:#7397a3;}.cls-2{fill:#005c78;}.cls-3{fill:#008ea1;}</style></defs><g id="Capa_2" data-name="Capa 2"><g id="texto"><path class="cls-1" d="M10.26,69H9.08v-.54a3.06,3.06,0,0,0-.42.32c-.44.42-.94.26-1.4.11a1,1,0,0,1-.68-1,1.16,1.16,0,0,1,.65-1.19,12.74,12.74,0,0,1,1.34-.51.69.69,0,0,0,.5-.94.66.66,0,0,0-.86-.53,10.81,10.81,0,0,0-1,.39l-.12,0c.06-.27.12-.51.19-.74a.22.22,0,0,1,.13-.14,3,3,0,0,1,2-.08,1,1,0,0,1,.72,1c0,.86,0,1.72,0,2.58C10.16,68.13,10.22,68.54,10.26,69ZM9.1,66.76c-.23,0-.42,0-.61,0-.67,0-1,.35-.83,1a.75.75,0,0,0,.79.59.6.6,0,0,0,.65-.53C9.12,67.48,9.1,67.13,9.1,66.76Z"/><path class="cls-1" d="M18.36,68.92H17.18v-.54c-.16.12-.3.21-.42.32-.44.43-.94.27-1.4.11a1,1,0,0,1-.68-1,1.16,1.16,0,0,1,.66-1.18,12.63,12.63,0,0,1,1.33-.52.69.69,0,0,0,.5-.94.66.66,0,0,0-.86-.53,8,8,0,0,0-1,.4l-.13,0c.07-.26.12-.5.19-.74a.24.24,0,0,1,.13-.13,3,3,0,0,1,2-.09,1,1,0,0,1,.72,1c0,.86,0,1.72,0,2.58C18.26,68.09,18.32,68.5,18.36,68.92ZM17.2,66.71h-.61c-.67,0-.95.35-.82,1a.76.76,0,0,0,.78.59c.38,0,.63-.21.65-.54S17.2,67.09,17.2,66.71Z"/><path class="cls-1" d="M54.69,68.92H53.52v-.54a4.37,4.37,0,0,0-.43.32c-.43.43-.93.27-1.39.11a1,1,0,0,1-.68-1,1.14,1.14,0,0,1,.65-1.18A12.63,12.63,0,0,1,53,66.11a.69.69,0,0,0,.51-.94.66.66,0,0,0-.86-.53,7.57,7.57,0,0,0-1,.4l-.13,0c.07-.26.12-.5.19-.74a.26.26,0,0,1,.14-.13,3,3,0,0,1,2-.09,1,1,0,0,1,.73,1c0,.86,0,1.72,0,2.58C54.59,68.09,54.65,68.5,54.69,68.92Zm-1.15-2.21h-.61c-.68,0-1,.35-.83,1a.76.76,0,0,0,.79.59c.37,0,.62-.21.64-.54S53.54,67.09,53.54,66.71Z"/><path class="cls-2" d="M22.87,0c.46.78.93,1.56,1.38,2.34q4,7,8.06,14l2.63,4.55L35,21H30a.38.38,0,0,1-.37-.22l-4.89-8.48L17.77.29A2.46,2.46,0,0,1,17.7,0Z"/><path class="cls-2" d="M7.54,55.19A21.43,21.43,0,0,0,8.67,53.3c1.81-3.9,3.6-7.82,5.39-11.73a1.19,1.19,0,0,1,.1-.18c2.28,4.62,4.32,9.32,6.68,13.84H17.52a2.57,2.57,0,0,0-.27-2.33c-.28-.57-.54-1.15-.82-1.72a.39.39,0,0,0-.28-.19c-1.36,0-2.72,0-4.08,0a.35.35,0,0,0-.26.16c-.29.61-.56,1.23-.84,1.84a2.81,2.81,0,0,0-.17,2.26H7.54Zm8.07-5.84L14.08,46l-1.47,3.34Z"/><ellipse class="cls-3" cx="27.5" cy="59.36" rx="38.89" ry="0.21"/><path class="cls-1" d="M13,38.2c-.86-1.5-1.71-3-2.54-4.43a.39.39,0,0,1,0-.33c1.7-3,3.42-5.94,5.13-8.91L22.29,13a3.54,3.54,0,0,0,.19-.31l.67,1.14c.61,1.06,1.22,2.13,1.84,3.19a.36.36,0,0,1,0,.43L13.1,38Z"/><path class="cls-3" d="M47.25,23.16l-2.12,3.67c-.17.29-.28.69-.54.84s-.66,0-1,0H21.49l.49-.87c.67-1.16,1.35-2.32,2-3.49a.36.36,0,0,1,.35-.21H47.25Z"/><path class="cls-2" d="M31.76,50.9A5.28,5.28,0,0,1,33.24,47a4.7,4.7,0,0,1,3.24-1.37,4.07,4.07,0,0,1,4.13,3.09A5.38,5.38,0,0,1,40,53.52a4.41,4.41,0,0,1-3.38,1.91,4.33,4.33,0,0,1-2.88-.64A4.22,4.22,0,0,1,31.89,52C31.82,51.57,31.79,51.17,31.76,50.9ZM36.65,54a1.82,1.82,0,0,0,1.79-1.32,5.46,5.46,0,0,0-.91-4.89,1.89,1.89,0,0,0-3.24.53,4.68,4.68,0,0,0-.3,1.44,5.05,5.05,0,0,0,.75,3.1A2.19,2.19,0,0,0,36.65,54Z"/><path class="cls-2" d="M39.31,21c-.61,0-1.17,0-1.73,0-.08,0-.19-.11-.24-.2q-2.75-4.75-5.5-9.51L26.55,2.15c0-.06-.05-.13-.09-.23.59,0,1.15,0,1.7,0,.09,0,.19.13.25.22l2.94,5.09,7.83,13.57A1.86,1.86,0,0,1,39.31,21Z"/><path class="cls-1" d="M20.35,9c.3.53.59,1,.84,1.48a.53.53,0,0,1-.08.37q-1.91,3.33-3.83,6.64l-6.9,12-.13.22a8.17,8.17,0,0,0-.56-.93,1,1,0,0,1,0-1.32q5.25-9,10.46-18.12C20.21,9.16,20.27,9.08,20.35,9Z"/><path class="cls-2" d="M42.74,21c-.57,0-1.09,0-1.61,0-.09,0-.21-.12-.27-.22L39,17.58,33,7.12,30.13,2.21,30,1.93c.59,0,1.12,0,1.65,0,.08,0,.16.13.21.22l3.45,6,7.35,12.74A2,2,0,0,1,42.74,21Z"/><path class="cls-1" d="M18.63,6c.28.48.55.92.79,1.38,0,.09,0,.26-.08.37L16.19,13.2,8.66,26.25c-.05.09-.11.18-.19.3-.28-.48-.55-.93-.79-1.38a.38.38,0,0,1,.06-.32C8.84,22.92,10,21,11.07,19.07L18.42,6.34Z"/><path class="cls-3" d="M41.22,29.82l-.85,1.45a.35.35,0,0,1-.19.1.53.53,0,0,1-.18,0H19.37c.3-.54.58-1,.86-1.5a.33.33,0,0,1,.21-.06c.39,0,.78,0,1.17,0H41.22Z"/><path class="cls-3" d="M39.48,32.82c-.3.52-.55,1-.82,1.44a.48.48,0,0,1-.21.12.55.55,0,0,1-.18,0H17.63c.3-.53.57-1,.86-1.48,0-.07.19-.08.29-.08h20.7Z"/><path class="cls-2" d="M26.66,47.31H25.23l3.53-3.85v2.4h2.33V47.3H28.76v.35c0,1.57,0,3.14,0,4.71a2.88,2.88,0,0,0,.12.77,1,1,0,0,0,.88.68,3.68,3.68,0,0,0,1.88-.4,11.32,11.32,0,0,1-.85,1.53c-.16.23-.56.31-.88.38a2.79,2.79,0,0,1-2.2-.32,2.18,2.18,0,0,1-1-1.94c0-1.83,0-3.66-.05-5.49C26.67,47.5,26.67,47.43,26.66,47.31Z"/><path class="cls-2" d="M21.4,42.23l2.87-1a10,10,0,0,0-.33,3.5q0,3.81,0,7.63a5.17,5.17,0,0,0,.42,2.86H21.41a4.45,4.45,0,0,0,.44-2.45c0-2.83,0-5.67,0-8.5A3.73,3.73,0,0,0,21.4,42.23Z"/><path class="cls-2" d="M44.83,55.24H42.06c.1-.37.21-.73.31-1.09a1.54,1.54,0,0,0,0-.3c0-2.19,0-4.38,0-6.58a5,5,0,0,0-.27-1.11,1.31,1.31,0,0,0-.12-.28H44.5v1l.64-.66a1.74,1.74,0,0,1,2-.34.38.38,0,0,1,.1.23c0,.06,0,.13-.06.2-.15.42-.29.85-.44,1.31a1.6,1.6,0,0,0-1.31-.14,1.31,1.31,0,0,0-.88,1.19c0,1.69,0,3.37,0,5A9.53,9.53,0,0,0,44.83,55.24Z"/><path class="cls-1" d="M5.84,67.62a2.8,2.8,0,0,1-.69.55,2.1,2.1,0,0,1-1,.24,2.21,2.21,0,0,1-1.78-.84,3.14,3.14,0,0,1-.69-2.08,3.55,3.55,0,0,1,.66-2.2A2.09,2.09,0,0,1,4,62.4a2.18,2.18,0,0,1,1.06.24,3.34,3.34,0,0,1,.75.61l0-1A7.29,7.29,0,0,0,4.9,62a4.8,4.8,0,0,0-.84-.07,3.71,3.71,0,0,0-2.68,1A3.69,3.69,0,0,0,1.29,68a3.5,3.5,0,0,0,2.55,1,4.22,4.22,0,0,0,.94-.09,4.6,4.6,0,0,0,.93-.33Z"/><path class="cls-1" d="M13.83,67a3.72,3.72,0,0,0-.84-.75l-.46-.34c-.34-.25-.5-.48-.5-.72a.61.61,0,0,1,.23-.49.84.84,0,0,1,.53-.17,1.62,1.62,0,0,1,.94.34h0l.09.06c0-.11,0-.2,0-.28v-.32a3.24,3.24,0,0,0-.53-.15,3.44,3.44,0,0,0-.52,0,2,2,0,0,0-1.29.36,1.16,1.16,0,0,0-.43,1,1.31,1.31,0,0,0,.27.83,4.23,4.23,0,0,0,1.09.88,1.87,1.87,0,0,1,.45.37A.72.72,0,0,1,13,68a.61.61,0,0,1-.22.49.8.8,0,0,1-.54.2,1.41,1.41,0,0,1-.65-.19,1.8,1.8,0,0,1-.35-.24l-.14-.13v.72a3.82,3.82,0,0,0,1.18.21,2.78,2.78,0,0,0,.85-.11,1.53,1.53,0,0,0,.55-.37,1.33,1.33,0,0,0,.33-.89A1.17,1.17,0,0,0,13.83,67Z"/><path class="cls-1" d="M25,68.34l.24-.27v.36l0,.51h1.19a1.71,1.71,0,0,1-.11-.27,2.71,2.71,0,0,1,0-.58v-5a3.86,3.86,0,0,1,0-.7,2,2,0,0,1,.14-.41H25.07a1.15,1.15,0,0,1,.11.33,4.27,4.27,0,0,1,0,.78v1.26L25,64.29a1.76,1.76,0,0,0-.63-.12,2.35,2.35,0,0,0-1.79.79,2.73,2.73,0,0,0-.74,1.94,2.26,2.26,0,0,0,.51,1.53,1.7,1.7,0,0,0,1.34.57,1.5,1.5,0,0,0,.68-.13A2.06,2.06,0,0,0,25,68.34Zm-.65.08a1.33,1.33,0,0,1-1.1-.59,2.3,2.3,0,0,1-.42-1.4,3,3,0,0,1,.24-1.18,1.09,1.09,0,0,1,1.12-.62,1.12,1.12,0,0,1,.53.12,1.57,1.57,0,0,1,.45.39l0,0v2.46a.87.87,0,0,1,0,.28.46.46,0,0,1-.15.21A.93.93,0,0,1,24.37,68.42Z"/><path class="cls-1" d="M29.31,64.14a1.88,1.88,0,0,0-1.53.66,2.83,2.83,0,0,0-.55,1.86c0,1.59.72,2.36,2.21,2.36A2.34,2.34,0,0,0,30,69a3.55,3.55,0,0,0,.57-.18,3.62,3.62,0,0,1,.24-.59l0,0c-.2.09-.36.16-.48.2a2.27,2.27,0,0,1-.65.1,1.35,1.35,0,0,1-.92-.33,1.31,1.31,0,0,1-.38-.54,2.56,2.56,0,0,1-.11-.83v-.13h2.76v-.45a2.22,2.22,0,0,0-.46-1.51A1.59,1.59,0,0,0,29.31,64.14Zm.91,1.92v.13h-1.9v-.36h0s0-.15.05-.31c.11-.8.57-1,.93-1s.92.24.92,1.39Z"/><path class="cls-1" d="M39,67.11a1.8,1.8,0,0,0-.28-.93,1.6,1.6,0,0,0-.7-.64h0l-.17-.09-.18-.07-.25-.1.23-.13a3.17,3.17,0,0,0,.51-.36,2,2,0,0,0,.29-.34h0a1.44,1.44,0,0,0-.33-2A2.57,2.57,0,0,0,36.52,62h-1.9a2.32,2.32,0,0,1,.14.37,2.17,2.17,0,0,1,0,.5v5.21a2.44,2.44,0,0,1,0,.51c0,.1-.08.22-.14.37h2.17a3,3,0,0,0,1-.13,2,2,0,0,0,.69-.47A1.66,1.66,0,0,0,39,67.11Zm-3-2V62.59h.44l.22,0a1,1,0,0,1,.6.42,1.41,1.41,0,0,1,.23.79,1.43,1.43,0,0,1-.37,1,1.18,1.18,0,0,1-.41.32,1.31,1.31,0,0,1-.58.1H36Zm1.47,2.76a1,1,0,0,1-.5.38,2.58,2.58,0,0,1-.84.11H36V65.3h.13a2.52,2.52,0,0,1,.48,0,1.22,1.22,0,0,1,.81.56,2,2,0,0,1,.29,1.1A1.51,1.51,0,0,1,37.49,67.88Z"/><path class="cls-1" d="M44.06,65.28a2.09,2.09,0,0,0-.83-.88,2.38,2.38,0,0,0-1.1-.25,2.44,2.44,0,0,0-1.82.71,2.5,2.5,0,0,0-.7,1.83,2.28,2.28,0,0,0,.67,1.68A2.32,2.32,0,0,0,42,69a2.37,2.37,0,0,0,1.74-.68,2.46,2.46,0,0,0,.67-1.76A2.75,2.75,0,0,0,44.06,65.28Zm-.88,2.79a.77.77,0,0,1-.78.43,1.37,1.37,0,0,1-.6-.17,1.85,1.85,0,0,1-.55-.38,2.78,2.78,0,0,1-.62-2v-.1c0-.52.07-.83.23-1a.74.74,0,0,1,.33-.19,1.52,1.52,0,0,1,.42-.06,1.48,1.48,0,0,1,1.13.58,2.08,2.08,0,0,1,.37.57,2.1,2.1,0,0,1,.17.6,4.25,4.25,0,0,1,0,.69A2.24,2.24,0,0,1,43.18,68.07Z"/><path class="cls-1" d="M45.29,62.33a6.63,6.63,0,0,1,0,.87v4.89a2.09,2.09,0,0,1-.06.58,1.4,1.4,0,0,1-.11.27h1.35a1.41,1.41,0,0,1-.12-.27,2.54,2.54,0,0,1,0-.57V63.21a3.92,3.92,0,0,1,0-.78,2,2,0,0,1,.13-.45H45.18A1.25,1.25,0,0,1,45.29,62.33Z"/><path class="cls-1" d="M50.28,67a3.72,3.72,0,0,0-.84-.75L49,65.89c-.33-.25-.49-.48-.49-.72a.6.6,0,0,1,.22-.49.85.85,0,0,1,.54-.17,1.62,1.62,0,0,1,.93.34h0l.08.06c0-.11,0-.2,0-.28v-.32a3.19,3.19,0,0,0-.52-.15,3.55,3.55,0,0,0-.52,0,2,2,0,0,0-1.3.36,1.16,1.16,0,0,0-.43,1,1.26,1.26,0,0,0,.28.83,4.14,4.14,0,0,0,1.08.88,1.87,1.87,0,0,1,.45.37.72.72,0,0,1,.13.42.61.61,0,0,1-.22.49.77.77,0,0,1-.54.2,1.45,1.45,0,0,1-.65-.19,1.8,1.8,0,0,1-.35-.24l-.14-.13v.72a3.82,3.82,0,0,0,1.18.21,2.74,2.74,0,0,0,.85-.11,1.45,1.45,0,0,0,.55-.37,1.29,1.29,0,0,0,.34-.89A1.16,1.16,0,0,0,50.28,67Z"/></g></g></svg>